# xmcd CD database file
#
# Track frame offsets:
#	150
#	22520
#	47210
#	64907
#	91500
#	116062
#	137377
#
# Disc length: 2118 seconds
#
# Revision: 0
# Processed by: cddbd v1.5.1PL0 Copyright (c) Steve Scherf et al.
# Submitted via: CD2WAV32(JP) R3.22
#
DISCID=4c084407
DTITLE=Eric Clapton - in the blues with EC
DYEAR=2002
DGENRE=Blues
TTITLE0=Knockin' On Heaven's Door
TTITLE1=I Wish It Would Rain Down
TTITLE2=Good To Me As I Am To You
TTITLE3=Go Back Home
TTITLE4=Blues All Day Long
TTITLE5=Creek Mud
TTITLE6=That's All Right
EXTD=
EXTT0=
EXTT1=
EXTT2=
EXTT3=
EXTT4=
EXTT5=
EXTT6=
PLAYORDER=
